# Valoria PREPRODUCTION GREYBOX only. Z up. No final assets.
o Water
v -120.000000 -120.000000 -0.500000
v 120.000000 -120.000000 -0.500000
v 120.000000 120.000000 -0.500000
v -120.000000 120.000000 -0.500000
v -120.000000 -120.000000 -0.200000
v 120.000000 -120.000000 -0.200000
v 120.000000 120.000000 -0.200000
v -120.000000 120.000000 -0.200000
f 1 3 2
f 1 4 3
f 5 6 7
f 5 7 8
f 1 2 6
f 1 6 5
f 2 3 7
f 2 7 6
f 3 4 8
f 3 8 7
f 4 1 5
f 4 5 8
o BackgroundTerrain
v -53.807571 1.462129 -1.000000
v -37.026873 10.178871 -1.000000
v -18.390678 34.355679 -1.000000
v 36.948949 53.627967 -1.000000
v 46.731897 26.749540 -1.000000
v 23.450043 22.189241 -1.000000
v -14.443801 16.659058 -1.000000
v -33.884837 -12.159134 -1.000000
v -53.807571 1.462129 0.000000
v -37.026873 10.178871 0.000000
v -18.390678 34.355679 0.000000
v 36.948949 53.627967 0.000000
v 46.731897 26.749540 0.000000
v 23.450043 22.189241 0.000000
v -14.443801 16.659058 0.000000
v -33.884837 -12.159134 0.000000
f 20 22 21
f 19 22 20
f 22 19 23
f 19 18 23
f 24 18 17
f 18 24 23
f 9 10 18
f 9 18 17
f 10 11 19
f 10 19 18
f 11 12 20
f 11 20 19
f 12 13 21
f 12 21 20
f 13 14 22
f 13 22 21
f 14 15 23
f 14 23 22
f 15 16 24
f 15 24 23
f 16 9 17
f 16 17 24
o ForegroundBank
v -40.323155 -35.585999 -0.700000
v -19.447098 -35.380095 -0.700000
v -6.296306 -34.507200 -0.700000
v 10.132518 -38.529025 -0.700000
v 30.440824 -46.356970 -0.700000
v -24.949953 -77.823526 -0.700000
v -40.323155 -35.585999 3.000000
v -19.447098 -35.380095 3.000000
v -6.296306 -34.507200 3.000000
v 10.132518 -38.529025 3.000000
v 30.440824 -46.356970 3.000000
v -24.949953 -77.823526 3.000000
f 36 32 31
f 33 32 36
f 34 36 35
f 34 33 36
f 25 26 32
f 25 32 31
f 26 27 33
f 26 33 32
f 27 28 34
f 27 34 33
f 28 29 35
f 28 35 34
f 29 30 36
f 29 36 35
f 30 25 31
f 30 31 36
o ForegroundRoad
v -6.454947 -45.583819 3.010000
v 3.191465 -46.595197 3.010000
v 5.500921 -33.752910 3.010000
v -4.713873 -32.687500 3.010000
v -6.454947 -45.583819 3.040000
v 3.191465 -46.595197 3.040000
v 5.500921 -33.752910 3.040000
v -4.713873 -32.687500 3.040000
f 42 44 41
f 44 42 43
f 37 38 42
f 37 42 41
f 38 39 43
f 38 43 42
f 39 40 44
f 39 44 43
f 40 37 41
f 40 41 44
o MainPlatform
v -25.819508 -23.080069 0.000000
v -26.138706 -17.543267 0.000000
v -25.143201 -10.136448 0.000000
v -24.142701 -6.032632 0.000000
v -19.395617 -2.217580 0.000000
v -14.944142 2.272599 0.000000
v -10.207287 3.648798 0.000000
v -5.335791 3.421592 0.000000
v 1.041825 4.264382 0.000000
v 10.641812 9.410902 0.000000
v 17.936826 11.022442 0.000000
v 26.987776 11.098868 0.000000
v 32.166736 10.026911 0.000000
v 36.452759 4.281506 0.000000
v 37.838348 -3.911075 0.000000
v 39.248518 -11.485926 0.000000
v 37.224683 -18.397337 0.000000
v 31.043478 -23.343148 0.000000
v 23.555302 -26.068621 0.000000
v 15.026190 -24.563611 0.000000
v 9.431330 -23.034247 0.000000
v 4.046481 -23.863575 0.000000
v -1.474755 -25.003451 0.000000
v -8.796847 -25.581221 0.000000
v -14.164727 -25.360746 0.000000
v -20.148407 -24.407745 0.000000
v -25.819508 -23.080069 7.000000
v -26.138706 -17.543267 7.000000
v -25.143201 -10.136448 7.000000
v -24.142701 -6.032632 7.000000
v -19.395617 -2.217580 7.000000
v -14.944142 2.272599 7.000000
v -10.207287 3.648798 7.000000
v -5.335791 3.421592 7.000000
v 1.041825 4.264382 7.000000
v 10.641812 9.410902 7.000000
v 17.936826 11.022442 7.000000
v 26.987776 11.098868 7.000000
v 32.166736 10.026911 7.000000
v 36.452759 4.281506 7.000000
v 37.838348 -3.911075 7.000000
v 39.248518 -11.485926 7.000000
v 37.224683 -18.397337 7.000000
v 31.043478 -23.343148 7.000000
v 23.555302 -26.068621 7.000000
v 15.026190 -24.563611 7.000000
v 9.431330 -23.034247 7.000000
v 4.046481 -23.863575 7.000000
v -1.474755 -25.003451 7.000000
v -8.796847 -25.581221 7.000000
v -14.164727 -25.360746 7.000000
v -20.148407 -24.407745 7.000000
f 85 84 82
f 84 83 82
f 85 88 86
f 88 85 90
f 90 80 91
f 80 79 91
f 88 87 86
f 79 92 91
f 92 79 78
f 93 92 78
f 89 88 90
f 85 81 90
f 81 80 90
f 81 85 82
f 77 75 78
f 75 77 76
f 95 75 73
f 75 74 73
f 95 94 75
f 94 93 78
f 75 94 78
f 71 96 72
f 96 73 72
f 96 95 73
f 45 46 72
f 45 72 71
f 46 47 73
f 46 73 72
f 47 48 74
f 47 74 73
f 48 49 75
f 48 75 74
f 49 50 76
f 49 76 75
f 50 51 77
f 50 77 76
f 51 52 78
f 51 78 77
f 52 53 79
f 52 79 78
f 53 54 80
f 53 80 79
f 54 55 81
f 54 81 80
f 55 56 82
f 55 82 81
f 56 57 83
f 56 83 82
f 57 58 84
f 57 84 83
f 58 59 85
f 58 85 84
f 59 60 86
f 59 86 85
f 60 61 87
f 60 87 86
f 61 62 88
f 61 88 87
f 62 63 89
f 62 89 88
f 63 64 90
f 63 90 89
f 64 65 91
f 64 91 90
f 65 66 92
f 65 92 91
f 66 67 93
f 66 93 92
f 67 68 94
f 67 94 93
f 68 69 95
f 68 95 94
f 69 70 96
f 69 96 95
f 70 45 71
f 70 71 96
o PlayableGround
v -25.804855 -23.120329 6.950000
v -26.124053 -17.583527 6.950000
v -25.128547 -10.176709 6.950000
v -24.128048 -6.072893 6.950000
v -19.380963 -2.257841 6.950000
v -14.929488 2.232339 6.950000
v -10.192633 3.608537 6.950000
v -5.321137 3.381331 6.950000
v 1.056479 4.224122 6.950000
v 10.656466 9.370641 6.950000
v 17.951479 10.982182 6.950000
v 27.002429 11.058607 6.950000
v 32.181390 9.986651 6.950000
v 36.467413 4.241245 6.950000
v 37.853002 -3.951336 6.950000
v 39.263172 -11.526187 6.950000
v 37.239336 -18.437597 6.950000
v 31.058131 -23.383409 6.950000
v 23.569956 -26.108882 6.950000
v 15.040843 -24.603871 6.950000
v 9.445984 -23.074507 6.950000
v 4.061135 -23.903836 6.950000
v -1.460101 -25.043712 6.950000
v -8.782193 -25.621481 6.950000
v -14.150073 -25.401006 6.950000
v -20.133753 -24.448006 6.950000
v -25.804855 -23.120329 7.030000
v -26.124053 -17.583527 7.030000
v -25.128547 -10.176709 7.030000
v -24.128048 -6.072893 7.030000
v -19.380963 -2.257841 7.030000
v -14.929488 2.232339 7.030000
v -10.192633 3.608537 7.030000
v -5.321137 3.381331 7.030000
v 1.056479 4.224122 7.030000
v 10.656466 9.370641 7.030000
v 17.951479 10.982182 7.030000
v 27.002429 11.058607 7.030000
v 32.181390 9.986651 7.030000
v 36.467413 4.241245 7.030000
v 37.853002 -3.951336 7.030000
v 39.263172 -11.526187 7.030000
v 37.239336 -18.437597 7.030000
v 31.058131 -23.383409 7.030000
v 23.569956 -26.108882 7.030000
v 15.040843 -24.603871 7.030000
v 9.445984 -23.074507 7.030000
v 4.061135 -23.903836 7.030000
v -1.460101 -25.043712 7.030000
v -8.782193 -25.621481 7.030000
v -14.150073 -25.401006 7.030000
v -20.133753 -24.448006 7.030000
f 137 136 134
f 136 135 134
f 137 140 138
f 140 137 142
f 142 132 143
f 132 131 143
f 140 139 138
f 131 144 143
f 144 131 130
f 145 144 130
f 141 140 142
f 137 133 142
f 133 132 142
f 133 137 134
f 129 127 130
f 127 129 128
f 147 127 125
f 127 126 125
f 147 146 127
f 146 145 130
f 127 146 130
f 123 148 124
f 148 125 124
f 148 147 125
f 97 98 124
f 97 124 123
f 98 99 125
f 98 125 124
f 99 100 126
f 99 126 125
f 100 101 127
f 100 127 126
f 101 102 128
f 101 128 127
f 102 103 129
f 102 129 128
f 103 104 130
f 103 130 129
f 104 105 131
f 104 131 130
f 105 106 132
f 105 132 131
f 106 107 133
f 106 133 132
f 107 108 134
f 107 134 133
f 108 109 135
f 108 135 134
f 109 110 136
f 109 136 135
f 110 111 137
f 110 137 136
f 111 112 138
f 111 138 137
f 112 113 139
f 112 139 138
f 113 114 140
f 113 140 139
f 114 115 141
f 114 141 140
f 115 116 142
f 115 142 141
f 116 117 143
f 116 143 142
f 117 118 144
f 117 144 143
f 118 119 145
f 118 145 144
f 119 120 146
f 119 146 145
f 120 121 147
f 120 147 146
f 121 122 148
f 121 148 147
f 122 97 123
f 122 123 148
o UpperTerraceCliff
v -18.551993 4.098943 7.030000
v -16.668034 6.871902 7.030000
v -14.704464 9.152024 7.030000
v -10.098009 12.394078 7.030000
v -4.195564 14.542392 7.030000
v 4.358129 13.655111 7.030000
v 13.764834 13.165269 7.030000
v 22.476126 13.900790 7.030000
v 26.754658 13.109887 7.030000
v 28.134500 11.785761 7.030000
v 27.169564 7.173075 7.030000
v 19.429827 5.138761 7.030000
v 11.791786 4.880841 7.030000
v 6.894836 3.533341 7.030000
v 1.986903 3.312441 7.030000
v -3.638525 2.047673 7.030000
v -10.343072 2.651330 7.030000
v -15.427196 2.366301 7.030000
v -18.551993 4.098943 11.000000
v -16.668034 6.871902 11.000000
v -14.704464 9.152024 11.000000
v -10.098009 12.394078 11.000000
v -4.195564 14.542392 11.000000
v 4.358129 13.655111 11.000000
v 13.764834 13.165269 11.000000
v 22.476126 13.900790 11.000000
v 26.754658 13.109887 11.000000
v 28.134500 11.785761 11.000000
v 27.169564 7.173075 11.000000
v 19.429827 5.138761 11.000000
v 11.791786 4.880841 11.000000
v 6.894836 3.533341 11.000000
v 1.986903 3.312441 11.000000
v -3.638525 2.047673 11.000000
v -10.343072 2.651330 11.000000
v -15.427196 2.366301 11.000000
f 175 177 176
f 181 172 171
f 174 177 175
f 184 168 167
f 172 179 173
f 182 181 171
f 170 182 171
f 174 178 177
f 178 174 173
f 179 178 173
f 183 170 169
f 183 182 170
f 168 183 169
f 183 168 184
f 180 172 181
f 180 179 172
f 149 150 168
f 149 168 167
f 150 151 169
f 150 169 168
f 151 152 170
f 151 170 169
f 152 153 171
f 152 171 170
f 153 154 172
f 153 172 171
f 154 155 173
f 154 173 172
f 155 156 174
f 155 174 173
f 156 157 175
f 156 175 174
f 157 158 176
f 157 176 175
f 158 159 177
f 158 177 176
f 159 160 178
f 159 178 177
f 160 161 179
f 160 179 178
f 161 162 180
f 161 180 179
f 162 163 181
f 162 181 180
f 163 164 182
f 163 182 181
f 164 165 183
f 164 183 182
f 165 166 184
f 165 184 183
f 166 149 167
f 166 167 184
o UpperTerraceGround
v -18.532455 4.045262 10.980000
v -16.648496 6.818221 10.980000
v -14.684926 9.098343 10.980000
v -10.078470 12.340397 10.980000
v -4.176026 14.488711 10.980000
v 4.377668 13.601430 10.980000
v 13.784372 13.111588 10.980000
v 22.495664 13.847109 10.980000
v 26.774196 13.056206 10.980000
v 28.154039 11.732080 10.980000
v 27.189102 7.119394 10.980000
v 19.449365 5.085080 10.980000
v 11.811324 4.827160 10.980000
v 6.914374 3.479660 10.980000
v 2.006442 3.258760 10.980000
v -3.618987 1.993992 10.980000
v -10.323534 2.597649 10.980000
v -15.407658 2.312620 10.980000
v -18.532455 4.045262 11.040000
v -16.648496 6.818221 11.040000
v -14.684926 9.098343 11.040000
v -10.078470 12.340397 11.040000
v -4.176026 14.488711 11.040000
v 4.377668 13.601430 11.040000
v 13.784372 13.111588 11.040000
v 22.495664 13.847109 11.040000
v 26.774196 13.056206 11.040000
v 28.154039 11.732080 11.040000
v 27.189102 7.119394 11.040000
v 19.449365 5.085080 11.040000
v 11.811324 4.827160 11.040000
v 6.914374 3.479660 11.040000
v 2.006442 3.258760 11.040000
v -3.618987 1.993992 11.040000
v -10.323534 2.597649 11.040000
v -15.407658 2.312620 11.040000
f 211 213 212
f 217 208 207
f 210 213 211
f 220 204 203
f 208 215 209
f 218 217 207
f 206 218 207
f 210 214 213
f 214 210 209
f 215 214 209
f 219 206 205
f 219 218 206
f 204 219 205
f 219 204 220
f 216 208 217
f 216 215 208
f 185 186 204
f 185 204 203
f 186 187 205
f 186 205 204
f 187 188 206
f 187 206 205
f 188 189 207
f 188 207 206
f 189 190 208
f 189 208 207
f 190 191 209
f 190 209 208
f 191 192 210
f 191 210 209
f 192 193 211
f 192 211 210
f 193 194 212
f 193 212 211
f 194 195 213
f 194 213 212
f 195 196 214
f 195 214 213
f 196 197 215
f 196 215 214
f 197 198 216
f 197 216 215
f 198 199 217
f 198 217 216
f 199 200 218
f 199 218 217
f 200 201 219
f 200 219 218
f 201 202 220
f 201 220 219
f 202 185 203
f 202 203 220
o MainRoad
v 0.932810 -22.161499 7.031000
v 5.880547 -22.187018 7.031000
v 5.083290 3.439548 7.031000
v 1.972845 3.351065 7.031000
v 0.932810 -22.161499 7.080000
v 5.880547 -22.187018 7.080000
v 5.083290 3.439548 7.080000
v 1.972845 3.351065 7.080000
f 226 228 225
f 227 228 226
f 221 222 226
f 221 226 225
f 222 223 227
f 222 227 226
f 223 224 228
f 223 228 227
f 224 221 225
f 224 225 228
o GateThreshold
v 0.788690 -26.562401 7.031000
v 8.746923 -26.361879 7.031000
v 7.731440 -20.556690 7.031000
v 0.541492 -21.086362 7.031000
v 0.788690 -26.562401 7.080000
v 8.746923 -26.361879 7.080000
v 7.731440 -20.556690 7.080000
v 0.541492 -21.086362 7.080000
f 233 235 236
f 235 233 234
f 229 230 234
f 229 234 233
f 230 231 235
f 230 235 234
f 231 232 236
f 231 236 235
f 232 229 233
f 232 233 236
o UpperRoad
v 2.006283 2.573929 11.041000
v 7.514792 2.926453 11.041000
v 8.173136 9.340865 11.041000
v 2.921304 9.516609 11.041000
v 2.006283 2.573929 11.090000
v 7.514792 2.926453 11.090000
v 8.173136 9.340865 11.090000
v 2.921304 9.516609 11.090000
f 242 244 241
f 244 242 243
f 237 238 242
f 237 242 241
f 238 239 243
f 238 243 242
f 239 240 244
f 239 244 243
f 240 237 241
f 240 241 244
o Stair_00
v -0.444569 2.968632 6.956667
v 6.255431 2.968632 6.956667
v 6.255431 3.143165 6.956667
v -0.444569 3.143165 6.956667
v -0.444569 2.968632 7.216667
v 6.255431 2.968632 7.216667
v 6.255431 3.143165 7.216667
v -0.444569 3.143165 7.216667
f 245 247 246
f 245 248 247
f 249 250 251
f 249 251 252
f 245 246 250
f 245 250 249
f 246 247 251
f 246 251 250
f 247 248 252
f 247 252 251
f 248 245 249
f 248 249 252
o Stair_01
v -0.308985 3.018698 7.290000
v 6.391015 3.018698 7.290000
v 6.391015 3.193231 7.290000
v -0.308985 3.193231 7.290000
v -0.308985 3.018698 7.550000
v 6.391015 3.018698 7.550000
v 6.391015 3.193231 7.550000
v -0.308985 3.193231 7.550000
f 253 255 254
f 253 256 255
f 257 258 259
f 257 259 260
f 253 254 258
f 253 258 257
f 254 255 259
f 254 259 258
f 255 256 260
f 255 260 259
f 256 253 257
f 256 257 260
o Stair_02
v -0.173401 3.068765 7.623333
v 6.526599 3.068765 7.623333
v 6.526599 3.243297 7.623333
v -0.173401 3.243297 7.623333
v -0.173401 3.068765 7.883333
v 6.526599 3.068765 7.883333
v 6.526599 3.243297 7.883333
v -0.173401 3.243297 7.883333
f 261 263 262
f 261 264 263
f 265 266 267
f 265 267 268
f 261 262 266
f 261 266 265
f 262 263 267
f 262 267 266
f 263 264 268
f 263 268 267
f 264 261 265
f 264 265 268
o Stair_03
v -0.037816 3.118831 7.956667
v 6.662184 3.118831 7.956667
v 6.662184 3.293364 7.956667
v -0.037816 3.293364 7.956667
v -0.037816 3.118831 8.216667
v 6.662184 3.118831 8.216667
v 6.662184 3.293364 8.216667
v -0.037816 3.293364 8.216667
f 269 271 270
f 269 272 271
f 273 274 275
f 273 275 276
f 269 270 274
f 269 274 273
f 270 271 275
f 270 275 274
f 271 272 276
f 271 276 275
f 272 269 273
f 272 273 276
o Stair_04
v 0.097768 3.168897 8.290000
v 6.797768 3.168897 8.290000
v 6.797768 3.343430 8.290000
v 0.097768 3.343430 8.290000
v 0.097768 3.168897 8.550000
v 6.797768 3.168897 8.550000
v 6.797768 3.343430 8.550000
v 0.097768 3.343430 8.550000
f 277 279 278
f 277 280 279
f 281 282 283
f 281 283 284
f 277 278 282
f 277 282 281
f 278 279 283
f 278 283 282
f 279 280 284
f 279 284 283
f 280 277 281
f 280 281 284
o Stair_05
v 0.233352 3.218964 8.623333
v 6.933352 3.218964 8.623333
v 6.933352 3.393496 8.623333
v 0.233352 3.393496 8.623333
v 0.233352 3.218964 8.883333
v 6.933352 3.218964 8.883333
v 6.933352 3.393496 8.883333
v 0.233352 3.393496 8.883333
f 285 287 286
f 285 288 287
f 289 290 291
f 289 291 292
f 285 286 290
f 285 290 289
f 286 287 291
f 286 291 290
f 287 288 292
f 287 292 291
f 288 285 289
f 288 289 292
o Stair_06
v 0.368937 3.269030 8.956667
v 7.068937 3.269030 8.956667
v 7.068937 3.443563 8.956667
v 0.368937 3.443563 8.956667
v 0.368937 3.269030 9.216667
v 7.068937 3.269030 9.216667
v 7.068937 3.443563 9.216667
v 0.368937 3.443563 9.216667
f 293 295 294
f 293 296 295
f 297 298 299
f 297 299 300
f 293 294 298
f 293 298 297
f 294 295 299
f 294 299 298
f 295 296 300
f 295 300 299
f 296 293 297
f 296 297 300
o Stair_07
v 0.504521 3.319096 9.290000
v 7.204521 3.319096 9.290000
v 7.204521 3.493629 9.290000
v 0.504521 3.493629 9.290000
v 0.504521 3.319096 9.550000
v 7.204521 3.319096 9.550000
v 7.204521 3.493629 9.550000
v 0.504521 3.493629 9.550000
f 301 303 302
f 301 304 303
f 305 306 307
f 305 307 308
f 301 302 306
f 301 306 305
f 302 303 307
f 302 307 306
f 303 304 308
f 303 308 307
f 304 301 305
f 304 305 308
o Stair_08
v 0.640105 3.369162 9.623333
v 7.340105 3.369162 9.623333
v 7.340105 3.543695 9.623333
v 0.640105 3.543695 9.623333
v 0.640105 3.369162 9.883333
v 7.340105 3.369162 9.883333
v 7.340105 3.543695 9.883333
v 0.640105 3.543695 9.883333
f 309 311 310
f 309 312 311
f 313 314 315
f 313 315 316
f 309 310 314
f 309 314 313
f 310 311 315
f 310 315 314
f 311 312 316
f 311 316 315
f 312 309 313
f 312 313 316
o Stair_09
v 0.775689 3.419229 9.956667
v 7.475689 3.419229 9.956667
v 7.475689 3.593762 9.956667
v 0.775689 3.593762 9.956667
v 0.775689 3.419229 10.216667
v 7.475689 3.419229 10.216667
v 7.475689 3.593762 10.216667
v 0.775689 3.593762 10.216667
f 317 319 318
f 317 320 319
f 321 322 323
f 321 323 324
f 317 318 322
f 317 322 321
f 318 319 323
f 318 323 322
f 319 320 324
f 319 324 323
f 320 317 321
f 320 321 324
o Stair_10
v 0.911274 3.469295 10.290000
v 7.611274 3.469295 10.290000
v 7.611274 3.643828 10.290000
v 0.911274 3.643828 10.290000
v 0.911274 3.469295 10.550000
v 7.611274 3.469295 10.550000
v 7.611274 3.643828 10.550000
v 0.911274 3.643828 10.550000
f 325 327 326
f 325 328 327
f 329 330 331
f 329 331 332
f 325 326 330
f 325 330 329
f 326 327 331
f 326 331 330
f 327 328 332
f 327 332 331
f 328 325 329
f 328 329 332
o Stair_11
v 1.046858 3.519361 10.623333
v 7.746858 3.519361 10.623333
v 7.746858 3.693894 10.623333
v 1.046858 3.693894 10.623333
v 1.046858 3.519361 10.883333
v 7.746858 3.519361 10.883333
v 7.746858 3.693894 10.883333
v 1.046858 3.693894 10.883333
f 333 335 334
f 333 336 335
f 337 338 339
f 337 339 340
f 333 334 338
f 333 338 337
f 334 335 339
f 334 339 338
f 335 336 340
f 335 340 339
f 336 333 337
f 336 337 340
o StairCheekLeft
v -1.062361 3.030865 7.040000
v -0.562361 3.030865 7.040000
v 1.064650 3.631661 11.040000
v 0.564650 3.631661 11.040000
v -1.062361 3.030865 8.140000
v -0.562361 3.030865 8.140000
v 1.064650 3.631661 12.140000
v 0.564650 3.631661 12.140000
f 341 342 346
f 341 346 345
f 342 343 347
f 342 347 346
f 343 344 348
f 343 348 347
f 344 341 345
f 344 345 348
f 345 346 347
f 345 347 348
o StairCheekRight
v 6.237639 3.030865 7.040000
v 6.737639 3.030865 7.040000
v 8.364650 3.631661 11.040000
v 7.864650 3.631661 11.040000
v 6.237639 3.030865 8.140000
v 6.737639 3.030865 8.140000
v 8.364650 3.631661 12.140000
v 7.864650 3.631661 12.140000
f 349 350 354
f 349 354 353
f 350 351 355
f 350 355 354
f 351 352 356
f 351 356 355
f 352 349 353
f 352 353 356
f 353 354 355
f 353 355 356
o BridgeDeck
v -4.848348 -33.414458 3.200000
v 5.407124 -33.769311 3.200000
v 8.722500 -26.294778 7.030000
v 0.764267 -26.495300 7.030000
v -4.848348 -33.414458 2.500000
v 5.407124 -33.769311 2.500000
v 8.722500 -26.294778 6.330000
v 0.764267 -26.495300 6.330000
f 357 358 359
f 357 359 360
f 357 361 362
f 357 362 358
f 358 362 363
f 358 363 359
f 359 363 364
f 359 364 360
f 360 364 361
f 360 361 357
o BridgeParapetL
v -5.034737 -33.263265 3.200000
v -4.661960 -33.565651 3.200000
v 0.950656 -26.646493 7.030000
v 0.577879 -26.344108 7.030000
v -5.034737 -33.263265 4.500000
v -4.661960 -33.565651 4.500000
v 0.950656 -26.646493 8.330000
v 0.577879 -26.344108 8.330000
f 365 366 370
f 365 370 369
f 366 367 371
f 366 371 370
f 367 368 372
f 367 372 371
f 368 365 369
f 368 369 372
f 369 370 371
f 369 371 372
o BridgeParapetR
v 5.187737 -33.672001 3.200000
v 5.626511 -33.866622 3.200000
v 8.941887 -26.392088 7.030000
v 8.503113 -26.197467 7.030000
v 5.187737 -33.672001 4.500000
v 5.626511 -33.866622 4.500000
v 8.941887 -26.392088 8.330000
v 8.503113 -26.197467 8.330000
f 373 374 378
f 373 378 377
f 374 375 379
f 374 379 378
f 375 376 380
f 375 380 379
f 376 373 377
f 376 377 380
f 377 378 379
f 377 379 380
o BridgeSupport
v 6.064812 -31.032045 0.000000
v 8.064812 -31.032045 0.000000
v 8.064812 -29.032045 0.000000
v 6.064812 -29.032045 0.000000
v 6.064812 -31.032045 4.600000
v 8.064812 -31.032045 4.600000
v 8.064812 -29.032045 4.600000
v 6.064812 -29.032045 4.600000
f 381 383 382
f 381 384 383
f 385 386 387
f 385 387 388
f 381 382 386
f 381 386 385
f 382 383 387
f 382 387 386
f 383 384 388
f 383 388 387
f 384 381 385
f 384 385 388
o LowerGate_WestTower
v -0.094238 -27.391793 7.100000
v 3.205762 -27.391793 7.100000
v 3.205762 -24.191793 7.100000
v -0.094238 -24.191793 7.100000
v -0.094238 -27.391793 15.400000
v 3.205762 -27.391793 15.400000
v 3.205762 -24.191793 15.400000
v -0.094238 -24.191793 15.400000
f 389 391 390
f 389 392 391
f 393 394 395
f 393 395 396
f 389 390 394
f 389 394 393
f 390 391 395
f 390 395 394
f 391 392 396
f 391 396 395
f 392 389 393
f 392 393 396
o LowerGate_EastTower
v 7.928282 -27.095077 7.100000
v 11.628282 -27.095077 7.100000
v 11.628282 -23.895077 7.100000
v 7.928282 -23.895077 7.100000
v 7.928282 -27.095077 15.400000
v 11.628282 -27.095077 15.400000
v 11.628282 -23.895077 15.400000
v 7.928282 -23.895077 15.400000
f 397 399 398
f 397 400 399
f 401 402 403
f 401 403 404
f 397 398 402
f 397 402 401
f 398 399 403
f 398 403 402
f 399 400 404
f 399 404 403
f 400 397 401
f 400 401 404
o LowerGate_Lintel
v 1.475120 -26.709462 12.600000
v 9.675120 -26.709462 12.600000
v 9.675120 -24.209462 12.600000
v 1.475120 -24.209462 12.600000
v 1.475120 -26.709462 15.000000
v 9.675120 -26.709462 15.000000
v 9.675120 -24.209462 15.000000
v 1.475120 -24.209462 15.000000
f 405 407 406
f 405 408 407
f 409 410 411
f 409 411 412
f 405 406 410
f 405 410 409
f 406 407 411
f 406 411 410
f 407 408 412
f 407 412 411
f 408 405 409
f 408 409 412
o LowerGate_WestWing
v -1.342997 -23.264702 7.060000
v -8.274523 -21.352156 7.060000
v -8.460710 -22.026941 7.060000
v -1.529183 -23.939487 7.060000
v -1.342997 -23.264702 10.060000
v -8.274523 -21.352156 10.060000
v -8.460710 -22.026941 10.060000
v -1.529183 -23.939487 10.060000
f 418 420 417
f 420 418 419
f 413 414 418
f 413 418 417
f 414 415 419
f 414 419 418
f 415 416 420
f 415 420 419
f 416 413 417
f 416 417 420
o LowerGate_EastWing
v 10.569609 -22.971036 7.060000
v 18.419406 -23.157857 7.060000
v 18.436061 -22.458055 7.060000
v 10.586264 -22.271234 7.060000
v 10.569609 -22.971036 10.060000
v 18.419406 -23.157857 10.060000
v 18.436061 -22.458055 10.060000
v 10.586264 -22.271234 10.060000
f 428 426 427
f 426 428 425
f 421 422 426
f 421 426 425
f 422 423 427
f 422 427 426
f 423 424 428
f 423 428 427
f 424 421 425
f 424 425 428
o WestPartialWall
v -13.894274 -18.995018 7.060000
v -7.874157 -19.499912 7.060000
v -7.815655 -18.802361 7.060000
v -13.835772 -18.297467 7.060000
v -13.894274 -18.995018 10.660000
v -7.874157 -19.499912 10.660000
v -7.815655 -18.802361 10.660000
v -13.835772 -18.297467 10.660000
f 436 434 435
f 434 436 433
f 429 430 434
f 429 434 433
f 430 431 435
f 430 435 434
f 431 432 436
f 431 436 435
f 432 429 433
f 432 433 436
o WestWallTowerA
v -14.841264 -19.747930 7.060000
v -13.041264 -19.747930 7.060000
v -13.041264 -17.947930 7.060000
v -14.841264 -17.947930 7.060000
v -14.841264 -19.747930 12.260000
v -13.041264 -19.747930 12.260000
v -13.041264 -17.947930 12.260000
v -14.841264 -17.947930 12.260000
f 437 439 438
f 437 440 439
f 441 442 443
f 441 443 444
f 437 438 442
f 437 442 441
f 438 439 443
f 438 443 442
f 439 440 444
f 439 444 443
f 440 437 441
f 440 441 444
o WestWallTowerB
v -8.589004 -20.104727 7.060000
v -6.989004 -20.104727 7.060000
v -6.989004 -18.504727 7.060000
v -8.589004 -18.504727 7.060000
v -8.589004 -20.104727 11.860000
v -6.989004 -20.104727 11.860000
v -6.989004 -18.504727 11.860000
v -8.589004 -18.504727 11.860000
f 445 447 446
f 445 448 447
f 449 450 451
f 449 451 452
f 445 446 450
f 445 450 449
f 446 447 451
f 446 451 450
f 447 448 452
f 447 452 451
f 448 445 449
f 448 449 452
o EastPartialWall
v 29.089388 -11.747900 7.060000
v 34.729410 -3.259398 7.060000
v 34.146374 -2.872011 7.060000
v 28.506352 -11.360512 7.060000
v 29.089388 -11.747900 10.460000
v 34.729410 -3.259398 10.460000
v 34.146374 -2.872011 10.460000
v 28.506352 -11.360512 10.460000
f 459 457 458
f 457 459 460
f 453 454 458
f 453 458 457
f 454 455 459
f 454 459 458
f 455 456 460
f 455 460 459
f 456 453 457
f 456 457 460
o EastWallTowerA
v 27.947870 -12.404206 7.060000
v 29.647870 -12.404206 7.060000
v 29.647870 -10.704206 7.060000
v 27.947870 -10.704206 7.060000
v 27.947870 -12.404206 11.760000
v 29.647870 -12.404206 11.760000
v 29.647870 -10.704206 11.760000
v 27.947870 -10.704206 11.760000
f 461 463 462
f 461 464 463
f 465 466 467
f 465 467 468
f 461 462 466
f 461 466 465
f 462 463 467
f 462 467 466
f 463 464 468
f 463 468 467
f 464 461 465
f 464 465 468
o EastWallTowerB
v 33.365892 -4.004941 7.060000
v 35.365892 -4.004941 7.060000
v 35.365892 -2.004941 7.060000
v 33.365892 -2.004941 7.060000
v 33.365892 -4.004941 12.660000
v 35.365892 -4.004941 12.660000
v 35.365892 -2.004941 12.660000
v 33.365892 -2.004941 12.660000
f 469 471 470
f 469 472 471
f 473 474 475
f 473 475 476
f 469 470 474
f 469 474 473
f 470 471 475
f 470 475 474
f 471 472 476
f 471 476 475
f 472 469 473
f 472 473 476
o BastionCurtainWest
v -8.614418 5.654395 11.100000
v 2.763469 7.012601 11.100000
v 2.644938 8.005551 11.100000
v -8.732949 6.647345 11.100000
v -8.614418 5.654395 15.700000
v 2.763469 7.012601 15.700000
v 2.644938 8.005551 15.700000
v -8.732949 6.647345 15.700000
f 483 481 482
f 481 483 484
f 477 478 482
f 477 482 481
f 478 479 483
f 478 483 482
f 479 480 484
f 479 484 483
f 480 477 481
f 480 481 484
o BastionCurtainEast
v 8.606391 9.485182 11.100000
v 19.299847 10.942151 11.100000
v 19.164846 11.932997 11.100000
v 8.471390 10.476027 11.100000
v 8.606391 9.485182 15.700000
v 19.299847 10.942151 15.700000
v 19.164846 11.932997 15.700000
v 8.471390 10.476027 15.700000
f 491 489 490
f 489 491 492
f 485 486 490
f 485 490 489
f 486 487 491
f 486 491 490
f 487 488 492
f 487 492 491
f 488 485 489
f 488 489 492
o BastionWestTower
v -9.836312 4.238635 11.100000
v -7.936312 4.238635 11.100000
v -7.936312 7.038635 11.100000
v -9.836312 7.038635 11.100000
v -9.836312 4.238635 15.300000
v -7.936312 4.238635 15.300000
v -7.936312 7.038635 15.300000
v -9.836312 7.038635 15.300000
f 493 495 494
f 493 496 495
f 497 498 499
f 497 499 500
f 493 494 498
f 493 498 497
f 494 495 499
f 494 499 498
f 495 496 500
f 495 500 499
f 496 493 497
f 496 497 500
o BastionEastTower
v 17.888348 9.859101 11.100000
v 20.288348 9.859101 11.100000
v 20.288348 13.259101 11.100000
v 17.888348 13.259101 11.100000
v 17.888348 9.859101 17.900000
v 20.288348 9.859101 17.900000
v 20.288348 13.259101 17.900000
v 17.888348 13.259101 17.900000
f 501 503 502
f 501 504 503
f 505 506 507
f 505 507 508
f 501 502 506
f 501 506 505
f 502 503 507
f 502 507 506
f 503 504 508
f 503 508 507
f 504 501 505
f 504 505 508
o BastionKeep
v 1.115945 6.769211 11.100000
v 5.015945 6.769211 11.100000
v 5.015945 11.469211 11.100000
v 1.115945 11.469211 11.100000
v 1.115945 6.769211 18.700000
v 5.015945 6.769211 18.700000
v 5.015945 11.469211 18.700000
v 1.115945 11.469211 18.700000
f 509 511 510
f 509 512 511
f 513 514 515
f 513 515 516
f 509 510 514
f 509 514 513
f 510 511 515
f 510 515 514
f 511 512 516
f 511 516 515
f 512 509 513
f 512 513 516
o BastionLeftWing
v -4.205650 7.071300 11.100000
v 0.994350 7.071300 11.100000
v 0.994350 11.071300 11.100000
v -4.205650 11.071300 11.100000
v -4.205650 7.071300 16.400000
v 0.994350 7.071300 16.400000
v 0.994350 11.071300 16.400000
v -4.205650 11.071300 16.400000
f 517 519 518
f 517 520 519
f 521 522 523
f 521 523 524
f 517 518 522
f 517 522 521
f 518 519 523
f 518 523 522
f 519 520 524
f 519 524 523
f 520 517 521
f 520 521 524
o BastionRightGatePillar
v 6.935929 8.220724 11.100000
v 8.235929 8.220724 11.100000
v 8.235929 11.220724 11.100000
v 6.935929 11.220724 11.100000
v 6.935929 8.220724 16.500000
v 8.235929 8.220724 16.500000
v 8.235929 11.220724 16.500000
v 6.935929 11.220724 16.500000
f 525 527 526
f 525 528 527
f 529 530 531
f 529 531 532
f 525 526 530
f 525 530 529
f 526 527 531
f 526 531 530
f 527 528 532
f 527 532 531
f 528 525 529
f 528 529 532
o BastionGateLintel
v 3.823907 7.354318 14.700000
v 8.223907 7.354318 14.700000
v 8.223907 10.254318 14.700000
v 3.823907 10.254318 14.700000
v 3.823907 7.354318 16.500000
v 8.223907 7.354318 16.500000
v 8.223907 10.254318 16.500000
v 3.823907 10.254318 16.500000
f 533 535 534
f 533 536 535
f 537 538 539
f 537 539 540
f 533 534 538
f 533 538 537
f 534 535 539
f 534 539 538
f 535 536 540
f 535 540 539
f 536 533 537
f 536 537 540
o BastionFarWestBlock
v -6.876767 7.179893 11.100000
v -4.076767 7.179893 11.100000
v -4.076767 10.579893 11.100000
v -6.876767 10.579893 11.100000
v -6.876767 7.179893 17.100000
v -4.076767 7.179893 17.100000
v -4.076767 10.579893 17.100000
v -6.876767 10.579893 17.100000
f 541 543 542
f 541 544 543
f 545 546 547
f 545 547 548
f 541 542 546
f 541 546 545
f 542 543 547
f 542 547 546
f 543 544 548
f 543 548 547
f 544 541 545
f 544 545 548
o Cabin
v -16.324636 -5.664682 7.100000
v -11.924636 -5.664682 7.100000
v -11.924636 -3.064682 7.100000
v -16.324636 -3.064682 7.100000
v -16.324636 -5.664682 9.200000
v -11.924636 -5.664682 9.200000
v -11.924636 -3.064682 9.200000
v -16.324636 -3.064682 9.200000
f 549 551 550
f 549 552 551
f 553 554 555
f 553 555 556
f 549 550 554
f 549 554 553
f 550 551 555
f 550 555 554
f 551 552 556
f 551 556 555
f 552 549 553
f 552 553 556
o CabinRoof
v -16.774636 -6.014682 9.200000
v -11.474636 -6.014682 9.200000
v -11.474636 -2.714682 9.200000
v -16.774636 -2.714682 9.200000
v -14.124636 -6.014682 10.200000
v -14.124636 -2.714682 10.200000
f 557 558 561
f 559 560 562
f 557 561 562
f 557 562 560
f 558 559 562
f 558 562 561
f 557 560 559
f 557 559 558
o CabinChimney
v -14.976458 -4.973623 10.100000
v -14.426458 -4.973623 10.100000
v -14.426458 -4.423623 10.100000
v -14.976458 -4.423623 10.100000
v -14.976458 -4.973623 11.400000
v -14.426458 -4.973623 11.400000
v -14.426458 -4.423623 11.400000
v -14.976458 -4.423623 11.400000
f 563 565 564
f 563 566 565
f 567 568 569
f 567 569 570
f 563 564 568
f 563 568 567
f 564 565 569
f 564 569 568
f 565 566 570
f 565 570 569
f 566 563 567
f 566 567 570
o CampTent_0
v 20.556547 0.634789 7.100000
v 23.156547 0.634789 7.100000
v 23.156547 3.434789 7.100000
v 20.556547 3.434789 7.100000
v 21.856547 0.634789 9.800000
v 21.856547 3.434789 9.800000
f 571 572 575
f 573 574 576
f 571 575 576
f 571 576 574
f 572 573 576
f 572 576 575
f 571 574 573
f 571 573 572
o CampTent_1
v 24.071663 0.254669 7.100000
v 27.671663 0.254669 7.100000
v 27.671663 3.954669 7.100000
v 24.071663 3.954669 7.100000
v 25.871663 0.254669 9.800000
v 25.871663 3.954669 9.800000
f 577 578 581
f 579 580 582
f 577 581 582
f 577 582 580
f 578 579 582
f 578 582 581
f 577 580 579
f 577 579 578
o CabinFence
v -17.894599 -8.153301 7.100000
v -7.733090 -6.194193 7.100000
v -7.757700 -6.066544 7.100000
v -17.919210 -8.025652 7.100000
v -17.894599 -8.153301 7.700000
v -7.733090 -6.194193 7.700000
v -7.757700 -6.066544 7.700000
v -17.919210 -8.025652 7.700000
f 589 587 588
f 587 589 590
f 583 584 588
f 583 588 587
f 584 585 589
f 584 589 588
f 585 586 590
f 585 590 589
f 586 583 587
f 586 587 590
o CampFence
v 17.510649 0.213048 7.100000
v 29.284096 0.758568 7.100000
v 29.278079 0.888429 7.100000
v 17.504632 0.342909 7.100000
v 17.510649 0.213048 7.700000
v 29.284096 0.758568 7.700000
v 29.278079 0.888429 7.700000
v 17.504632 0.342909 7.700000
f 597 595 596
f 595 597 598
f 591 592 596
f 591 596 595
f 592 593 597
f 592 597 596
f 593 594 598
f 593 598 597
f 594 591 595
f 594 595 598
o TreeMass_00
v -16.406364 4.097168 11.000000
v -14.806364 4.097168 12.400000
v -15.274993 5.228538 12.400000
v -16.406364 5.697168 12.400000
v -17.537735 5.228538 12.400000
v -18.006364 4.097168 12.400000
v -17.537735 2.965797 12.400000
v -16.406364 2.497168 12.400000
v -15.274993 2.965797 12.400000
v -16.406364 4.097168 18.000000
f 600 601 608
f 601 602 608
f 602 603 608
f 603 604 608
f 604 605 608
f 605 606 608
f 606 607 608
f 607 600 608
o TreeMass_01
v -15.491463 6.517419 11.000000
v -13.791463 6.517419 12.600000
v -14.289381 7.719500 12.600000
v -15.491463 8.217419 12.600000
v -16.693545 7.719500 12.600000
v -17.191463 6.517419 12.600000
v -16.693545 5.315337 12.600000
v -15.491463 4.817419 12.600000
v -14.289381 5.315337 12.600000
v -15.491463 6.517419 19.000000
f 610 611 618
f 611 612 618
f 612 613 618
f 613 614 618
f 614 615 618
f 615 616 618
f 616 617 618
f 617 610 618
o TreeMass_02
v -12.076803 10.978104 11.000000
v -10.076803 10.978104 13.200000
v -10.662589 12.392318 13.200000
v -12.076803 12.978104 13.200000
v -13.491017 12.392318 13.200000
v -14.076803 10.978104 13.200000
v -13.491017 9.563890 13.200000
v -12.076803 8.978104 13.200000
v -10.662589 9.563890 13.200000
v -12.076803 10.978104 22.000000
f 620 621 628
f 621 622 628
f 622 623 628
f 623 624 628
f 624 625 628
f 625 626 628
f 626 627 628
f 627 620 628
o TreeMass_03
v -8.717294 12.026928 11.000000
v -6.517294 12.026928 13.400000
v -7.161659 13.582562 13.400000
v -8.717294 14.226928 13.400000
v -10.272929 13.582562 13.400000
v -10.917294 12.026928 13.400000
v -10.272929 10.471293 13.400000
v -8.717294 9.826928 13.400000
v -7.161659 10.471293 13.400000
v -8.717294 12.026928 23.000000
f 630 631 638
f 631 632 638
f 632 633 638
f 633 634 638
f 634 635 638
f 635 636 638
f 636 637 638
f 637 630 638
o TreeMass_04
v -5.933779 13.561858 11.000000
v -4.133779 13.561858 12.800000
v -4.660987 14.834650 12.800000
v -5.933779 15.361858 12.800000
v -7.206571 14.834650 12.800000
v -7.733779 13.561858 12.800000
v -7.206571 12.289065 12.800000
v -5.933779 11.761858 12.800000
v -4.660987 12.289065 12.800000
v -5.933779 13.561858 20.000000
f 640 641 648
f 641 642 648
f 642 643 648
f 643 644 648
f 644 645 648
f 645 646 648
f 646 647 648
f 647 640 648
o TreeMass_05
v -3.792392 13.297632 11.000000
v -1.792392 13.297632 13.000000
v -2.378178 14.711845 13.000000
v -3.792392 15.297632 13.000000
v -5.206606 14.711845 13.000000
v -5.792392 13.297632 13.000000
v -5.206606 11.883418 13.000000
v -3.792392 11.297632 13.000000
v -2.378178 11.883418 13.000000
v -3.792392 13.297632 21.000000
f 650 651 658
f 651 652 658
f 652 653 658
f 653 654 658
f 654 655 658
f 655 656 658
f 656 657 658
f 657 650 658
o TreeMass_06
v 14.793164 12.669861 11.000000
v 16.793164 12.669861 13.200000
v 16.207378 14.084075 13.200000
v 14.793164 14.669861 13.200000
v 13.378951 14.084075 13.200000
v 12.793164 12.669861 13.200000
v 13.378951 11.255648 13.200000
v 14.793164 10.669861 13.200000
v 16.207378 11.255648 13.200000
v 14.793164 12.669861 22.000000
f 660 661 668
f 661 662 668
f 662 663 668
f 663 664 668
f 664 665 668
f 665 666 668
f 666 667 668
f 667 660 668
o TreeMass_07
v 18.074807 16.125474 11.000000
v 19.974807 16.125474 12.800000
v 19.418310 17.468977 12.800000
v 18.074807 18.025474 12.800000
v 16.731304 17.468977 12.800000
v 16.174807 16.125474 12.800000
v 16.731304 14.781971 12.800000
v 18.074807 14.225474 12.800000
v 19.418310 14.781971 12.800000
v 18.074807 16.125474 20.000000
f 670 671 678
f 671 672 678
f 672 673 678
f 673 674 678
f 674 675 678
f 675 676 678
f 676 677 678
f 677 670 678
o TreeMass_08
v 24.398025 9.990950 11.000000
v 26.398025 9.990950 13.400000
v 25.812238 11.405163 13.400000
v 24.398025 11.990950 13.400000
v 22.983811 11.405163 13.400000
v 22.398025 9.990950 13.400000
v 22.983811 8.576736 13.400000
v 24.398025 7.990950 13.400000
v 25.812238 8.576736 13.400000
v 24.398025 9.990950 23.000000
f 680 681 688
f 681 682 688
f 682 683 688
f 683 684 688
f 684 685 688
f 685 686 688
f 686 687 688
f 687 680 688
o TreeMass_09
v 26.295733 11.629705 7.000000
v 28.095733 11.629705 8.800000
v 27.568525 12.902498 8.800000
v 26.295733 13.429705 8.800000
v 25.022941 12.902498 8.800000
v 24.495733 11.629705 8.800000
v 25.022941 10.356913 8.800000
v 26.295733 9.829705 8.800000
v 27.568525 10.356913 8.800000
v 26.295733 11.629705 16.000000
f 690 691 698
f 691 692 698
f 692 693 698
f 693 694 698
f 694 695 698
f 695 696 698
f 696 697 698
f 697 690 698
o TreeMass_10
v 31.797382 8.848850 7.000000
v 33.597382 8.848850 8.600000
v 33.070174 10.121642 8.600000
v 31.797382 10.648850 8.600000
v 30.524590 10.121642 8.600000
v 29.997382 8.848850 8.600000
v 30.524590 7.576058 8.600000
v 31.797382 7.048850 8.600000
v 33.070174 7.576058 8.600000
v 31.797382 8.848850 15.000000
f 700 701 708
f 701 702 708
f 702 703 708
f 703 704 708
f 704 705 708
f 705 706 708
f 706 707 708
f 707 700 708
o TreeMass_11
v -22.110984 -21.208463 7.000000
v -20.110984 -21.208463 8.800000
v -20.696770 -19.794249 8.800000
v -22.110984 -19.208463 8.800000
v -23.525198 -19.794249 8.800000
v -24.110984 -21.208463 8.800000
v -23.525198 -22.622676 8.800000
v -22.110984 -23.208463 8.800000
v -20.696770 -22.622676 8.800000
v -22.110984 -21.208463 16.000000
f 710 711 718
f 711 712 718
f 712 713 718
f 713 714 718
f 714 715 718
f 715 716 718
f 716 717 718
f 717 710 718
o TreeMass_12
v -21.716055 -13.933268 7.000000
v -20.016055 -13.933268 8.600000
v -20.513974 -12.731186 8.600000
v -21.716055 -12.233268 8.600000
v -22.918137 -12.731186 8.600000
v -23.416055 -13.933268 8.600000
v -22.918137 -15.135349 8.600000
v -21.716055 -15.633268 8.600000
v -20.513974 -15.135349 8.600000
v -21.716055 -13.933268 15.000000
f 720 721 728
f 721 722 728
f 722 723 728
f 723 724 728
f 724 725 728
f 725 726 728
f 726 727 728
f 727 720 728
o TreeMass_13
v -20.848452 -6.312095 7.000000
v -19.348452 -6.312095 8.400000
v -19.787792 -5.251435 8.400000
v -20.848452 -4.812095 8.400000
v -21.909112 -5.251435 8.400000
v -22.348452 -6.312095 8.400000
v -21.909112 -7.372755 8.400000
v -20.848452 -7.812095 8.400000
v -19.787792 -7.372755 8.400000
v -20.848452 -6.312095 14.000000
f 730 731 738
f 731 732 738
f 732 733 738
f 733 734 738
f 734 735 738
f 735 736 738
f 736 737 738
f 737 730 738
o TreeMass_14
v -5.664197 -18.701079 7.000000
v -3.964197 -18.701079 8.400000
v -4.462116 -17.498998 8.400000
v -5.664197 -17.001079 8.400000
v -6.866279 -17.498998 8.400000
v -7.364197 -18.701079 8.400000
v -6.866279 -19.903161 8.400000
v -5.664197 -20.401079 8.400000
v -4.462116 -19.903161 8.400000
v -5.664197 -18.701079 14.000000
f 740 741 748
f 741 742 748
f 742 743 748
f 743 744 748
f 744 745 748
f 745 746 748
f 746 747 748
f 747 740 748
o TreeMass_15
v -8.940816 -32.860655 3.000000
v -6.740816 -32.860655 5.000000
v -7.385181 -31.305020 5.000000
v -8.940816 -30.660655 5.000000
v -10.496451 -31.305020 5.000000
v -11.140816 -32.860655 5.000000
v -10.496451 -34.416290 5.000000
v -8.940816 -35.060655 5.000000
v -7.385181 -34.416290 5.000000
v -8.940816 -32.860655 13.000000
f 750 751 758
f 751 752 758
f 752 753 758
f 753 754 758
f 754 755 758
f 755 756 758
f 756 757 758
f 757 750 758
o TreeMass_16
v -12.634868 -32.030957 3.000000
v -10.034868 -32.030957 5.400000
v -10.796391 -30.192479 5.400000
v -12.634868 -29.430957 5.400000
v -14.473346 -30.192479 5.400000
v -15.234868 -32.030957 5.400000
v -14.473346 -33.869434 5.400000
v -12.634868 -34.630957 5.400000
v -10.796391 -33.869434 5.400000
v -12.634868 -32.030957 15.000000
f 760 761 768
f 761 762 768
f 762 763 768
f 763 764 768
f 764 765 768
f 765 766 768
f 766 767 768
f 767 760 768
o TreeMass_17
v -17.170438 -45.335607 3.000000
v -14.070438 -45.335607 5.800000
v -14.978407 -43.143576 5.800000
v -17.170438 -42.235607 5.800000
v -19.362469 -43.143576 5.800000
v -20.270438 -45.335607 5.800000
v -19.362469 -47.527638 5.800000
v -17.170438 -48.435607 5.800000
v -14.978407 -47.527638 5.800000
v -17.170438 -45.335607 17.000000
f 770 771 778
f 771 772 778
f 772 773 778
f 773 774 778
f 774 775 778
f 775 776 778
f 776 777 778
f 777 770 778
o TreeMass_18
v 17.206298 -42.477050 3.000000
v 19.206298 -42.477050 4.600000
v 18.620512 -41.062836 4.600000
v 17.206298 -40.477050 4.600000
v 15.792085 -41.062836 4.600000
v 15.206298 -42.477050 4.600000
v 15.792085 -43.891263 4.600000
v 17.206298 -44.477050 4.600000
v 18.620512 -43.891263 4.600000
v 17.206298 -42.477050 11.000000
f 780 781 788
f 781 782 788
f 782 783 788
f 783 784 788
f 784 785 788
f 785 786 788
f 786 787 788
f 787 780 788
o TreeMass_19
v 25.035321 -26.023339 0.000000
v 27.435321 -26.023339 2.000000
v 26.732377 -24.326283 2.000000
v 25.035321 -23.623339 2.000000
v 23.338264 -24.326283 2.000000
v 22.635321 -26.023339 2.000000
v 23.338264 -27.720395 2.000000
v 25.035321 -28.423339 2.000000
v 26.732377 -27.720395 2.000000
v 25.035321 -26.023339 10.000000
f 790 791 798
f 791 792 798
f 792 793 798
f 793 794 798
f 794 795 798
f 795 796 798
f 796 797 798
f 797 790 798
o TreeMass_20
v 31.026734 -22.885985 0.000000
v 33.726734 -22.885985 2.400000
v 32.935922 -20.976796 2.400000
v 31.026734 -20.185985 2.400000
v 29.117545 -20.976796 2.400000
v 28.326734 -22.885985 2.400000
v 29.117545 -24.795173 2.400000
v 31.026734 -25.585985 2.400000
v 32.935922 -24.795173 2.400000
v 31.026734 -22.885985 12.000000
f 800 801 808
f 801 802 808
f 802 803 808
f 803 804 808
f 804 805 808
f 805 806 808
f 806 807 808
f 807 800 808
o TreeMass_21
v 41.922589 -23.355634 0.000000
v 44.522589 -23.355634 1.800000
v 43.761066 -21.517156 1.800000
v 41.922589 -20.755634 1.800000
v 40.084111 -21.517156 1.800000
v 39.322589 -23.355634 1.800000
v 40.084111 -25.194111 1.800000
v 41.922589 -25.955634 1.800000
v 43.761066 -25.194111 1.800000
v 41.922589 -23.355634 9.000000
f 810 811 818
f 811 812 818
f 812 813 818
f 813 814 818
f 814 815 818
f 815 816 818
f 816 817 818
f 817 810 818
o CliffShoulder_0
v -21.866843 -18.579057 0.000000
v -23.041514 -16.962261 0.000000
v -24.942172 -17.579822 0.000000
v -24.942172 -19.578292 0.000000
v -23.041514 -20.195853 0.000000
v -21.866843 -18.579057 6.000000
v -23.041514 -16.962261 6.000000
v -24.942172 -17.579822 6.000000
v -24.942172 -19.578292 6.000000
v -23.041514 -20.195853 6.000000
f 825 826 824
f 828 826 827
f 826 828 824
f 819 820 825
f 819 825 824
f 820 821 826
f 820 826 825
f 821 822 827
f 821 827 826
f 822 823 828
f 822 828 827
f 823 819 824
f 823 824 828
o CliffShoulder_1
v -16.581044 -20.764946 0.000000
v -17.963010 -18.862833 0.000000
v -20.199078 -19.589375 0.000000
v -20.199078 -21.940516 0.000000
v -17.963010 -22.667059 0.000000
v -16.581044 -20.764946 7.000000
v -17.963010 -18.862833 7.000000
v -20.199078 -19.589375 7.000000
v -20.199078 -21.940516 7.000000
v -17.963010 -22.667059 7.000000
f 835 836 834
f 838 836 837
f 836 838 834
f 829 830 835
f 829 835 834
f 830 831 836
f 830 836 835
f 831 832 837
f 831 837 836
f 832 833 838
f 832 838 837
f 833 829 834
f 833 834 838
o CliffShoulder_2
v -9.012555 -22.235322 0.000000
v -10.325422 -20.428314 0.000000
v -12.449687 -21.118530 0.000000
v -12.449687 -23.352114 0.000000
v -10.325422 -24.042329 0.000000
v -9.012555 -22.235322 7.000000
v -10.325422 -20.428314 7.000000
v -12.449687 -21.118530 7.000000
v -12.449687 -23.352114 7.000000
v -10.325422 -24.042329 7.000000
f 845 848 844
f 847 845 846
f 845 847 848
f 839 840 845
f 839 845 844
f 840 841 846
f 840 846 845
f 841 842 847
f 841 847 846
f 842 843 848
f 842 848 847
f 843 839 844
f 843 844 848
o CliffShoulder_3
v 18.055618 -22.595075 0.000000
v 16.673652 -20.692962 0.000000
v 14.437584 -21.419505 0.000000
v 14.437584 -23.770646 0.000000
v 16.673652 -24.497188 0.000000
v 18.055618 -22.595075 7.000000
v 16.673652 -20.692962 7.000000
v 14.437584 -21.419505 7.000000
v 14.437584 -23.770646 7.000000
v 16.673652 -24.497188 7.000000
f 855 858 854
f 857 855 856
f 855 857 858
f 849 850 855
f 849 855 854
f 850 851 856
f 850 856 855
f 851 852 857
f 851 857 856
f 852 853 858
f 852 858 857
f 853 849 854
f 853 854 858
o CliffShoulder_4
v 24.247536 -23.710968 0.000000
v 23.072865 -22.094172 0.000000
v 21.172208 -22.711733 0.000000
v 21.172208 -24.710203 0.000000
v 23.072865 -25.327764 0.000000
v 24.247536 -23.710968 6.000000
v 23.072865 -22.094172 6.000000
v 21.172208 -22.711733 6.000000
v 21.172208 -24.710203 6.000000
v 23.072865 -25.327764 6.000000
f 868 865 867
f 865 866 867
f 865 868 864
f 859 860 865
f 859 865 864
f 860 861 866
f 860 866 865
f 861 862 867
f 861 867 866
f 862 863 868
f 862 868 867
f 863 859 864
f 863 864 868
o CliffShoulder_5
v 33.749345 -20.622690 0.000000
v 32.367379 -18.720577 0.000000
v 30.131311 -19.447120 0.000000
v 30.131311 -21.798261 0.000000
v 32.367379 -22.524803 0.000000
v 33.749345 -20.622690 7.000000
v 32.367379 -18.720577 7.000000
v 30.131311 -19.447120 7.000000
v 30.131311 -21.798261 7.000000
v 32.367379 -22.524803 7.000000
f 875 876 874
f 878 876 877
f 876 878 874
f 869 870 875
f 869 875 874
f 870 871 876
f 870 876 875
f 871 872 877
f 871 877 876
f 872 873 878
f 872 878 877
f 873 869 874
f 873 874 878
o CliffShoulder_6
v 38.609349 -7.112987 0.000000
v 37.227383 -5.210874 0.000000
v 34.991315 -5.937417 0.000000
v 34.991315 -8.288558 0.000000
v 37.227383 -9.015100 0.000000
v 38.609349 -7.112987 7.000000
v 37.227383 -5.210874 7.000000
v 34.991315 -5.937417 7.000000
v 34.991315 -8.288558 7.000000
v 37.227383 -9.015100 7.000000
f 887 888 884
f 887 885 886
f 885 887 884
f 879 880 885
f 879 885 884
f 880 881 886
f 880 886 885
f 881 882 887
f 881 887 886
f 882 883 888
f 882 888 887
f 883 879 884
f 883 884 888
